<svg xmlns="http://www.w3.org/2000/svg" version="1.1" xmlns:xlink="http://www.w3.org/1999/xlink" xmlns:svgjs="http://svgjs.com/svgjs" width="512" height="512" x="0" y="0" viewBox="0 0 455 455" style="enable-background:new 0 0 512 512" xml:space="preserve" class="">
  <g>
    <path d="M455 242.5v-30h-59.173c-3.124-35.351-17.174-67.607-38.75-93.364l41.897-41.896-21.213-21.213-41.897 41.896c-25.757-21.576-58.013-35.625-93.364-38.75V0h-30v59.173c-35.351 3.124-67.607 17.174-93.364 38.75L77.239 56.027 56.026 77.24l41.897 41.896c-21.575 25.756-35.625 58.013-38.75 93.364H0v30h59.173c3.124 35.351 17.174 67.607 38.75 93.364L56.026 377.76l21.213 21.213 41.897-41.896c25.757 21.576 58.013 35.625 93.364 38.75V455h30v-59.173c35.351-3.124 67.607-17.174 93.364-38.75l41.897 41.896 21.213-21.213-41.897-41.896c21.575-25.756 35.625-58.013 38.75-93.364H455zm-366.5-15c0-71.577 54.384-130.684 124-138.188v276.377c-69.616-7.505-124-66.612-124-138.189z" fill="#fff" data-original="#000000" class=""></path>
  </g>
</svg>